<svg xmlns="http://www.w3.org/2000/svg" viewBox="0 0 139 37.08">
    <defs>
        <style>.cls-1{fill:#fff;}.cls-2{fill:#fff;}</style>
    </defs>
    <g id="Слой_2" data-name="Слой 2">
        <g id="Слой_1-2" data-name="Слой 1">
            <g id="pilotage_logo" data-name="pilotage logo">
                <path fill="#fff" id="Path_74" data-name="Path 74" class="cls-1"
                      d="M110.12,4.46c-2.33-.16-4.25-.33-6.17-.4a1.45,1.45,0,0,0-1,.66c-2.71,4.44-1.89,11.64,3.74,14.45,4.44,2.21,8.86,1.68,13.06-.87a1.49,1.49,0,0,0,.71-1c.06-2.57,0-5.15,0-7.75h-7.7v3.77h2.91c-.33,1-.37,2.27-.85,2.47-2.89,1.22-7.17.26-8.08-3.91C106.08,8.76,107.07,6.46,110.12,4.46Z"/>
                <path fill="#fff" id="Path_75" data-name="Path 75" class="cls-1"
                      d="M62.06,10.76A9.73,9.73,0,0,0,56,.92,11.58,11.58,0,0,0,43.13,3.58,10,10,0,0,0,41.8,14.51l4.79-.76c-1.26-2.94-1.33-5.65.9-8A5.19,5.19,0,0,1,53.4,4.49c3.31,1.23,3.89,4.06,3.7,7.32Z"/>
                <path fill="#fff" id="Path_77" data-name="Path 77" class="cls-1"
                      d="M136.39,11.75c0-.17.07-.35.1-.53L124,7V20h13.23V16.29h-8.25V11.75Z"/>
                <path fill="#fff" id="Path_78" data-name="Path 78" class="cls-1" d="M63.47,4h6.46V8.9L75,7.68V3.94h6.43V.5h-18Z"/>
                <path fill="#fff" id="Path_79" data-name="Path 79" class="cls-1"
                      d="M42.14,15.28c1.83,4,6.85,6,12.13,4.89,4.22-.86,7.61-4.61,7.67-8.54-1.26.26-2.52.53-3.78.77A3,3,0,0,0,56,13.86a5.49,5.49,0,0,1-7.61,1.5l-.27-.19c-.34-.26-.76-.67-1.1-.63C45.36,14.72,43.77,15,42.14,15.28Z"/>
                <path fill="#fff" id="Path_80" data-name="Path 80" class="cls-1" d="M18,.46V15.18l4.86.36V.46Z"/>
                <path fill="#fff" id="Path_81" data-name="Path 81" class="cls-1" d="M27.28.46V15.7l4.54-.21V.46Z"/>
                <path fill="#fff" id="Path_82" data-name="Path 82" class="cls-1"
                      d="M137,.48H124c0,1.75,0,3.43,0,5.1a1.28,1.28,0,0,0,.74.89c1.3.44,2.64.77,4.12,1.18V3.94H137Z"/>
                <path fill="#fff" id="Path_83" data-name="Path 83" class="cls-1"
                      d="M75,20.06V8.54c-1.48.36-2.88.66-4.26,1.06-.34.1-.84.5-.84.77-.06,3.22,0,6.44,0,9.7Z"/>
                <path fill="#fff" id="Path_84" data-name="Path 84" class="cls-1" d="M27.17,20.06H40.42V16.44H27.17Z"/>
                <path fill="#fff" id="Path_85" data-name="Path 85" class="cls-1"
                      d="M104.43,3.05l15.44,2A11.43,11.43,0,0,1,120,3.63c.27-1.51-.44-2.15-1.83-2.63a17,17,0,0,0-7.77-.78A9.41,9.41,0,0,0,104.43,3.05Z"/>
                <path fill="#fff" id="Path_86" data-name="Path 86" class="cls-1"
                      d="M.07,11v9.1H4.94V15.7c0-2.61,0-2.6-2.35-3.59C1.78,11.76,1,11.38.07,11Z"/>
                <path fill="#fff" id="Path_87" data-name="Path 87" class="cls-1"
                      d="M86.26,5.1l8.86-1.52a16,16,0,0,1-.69-1.86C94.19.66,93.6.37,92.53.38c-4.33,0-4.33,0-6,4C86.44,4.54,86.39,4.74,86.26,5.1Z"/>
                <path fill="#fff" id="Path_88" data-name="Path 88" class="cls-1" d="M18,20h5V16.38L18,16Z"/>
                <path fill="#fff" id="Path_89" data-name="Path 89" class="cls-1" d="M136.58,8.09h-6.35l6.35,2.41Z"/>
                <path fill="#fff" id="Path_91" data-name="Path 91"
                      d="M110.12,4.46c-3.05,2-4,4.3-3.36,7.42.91,4.17,5.19,5.13,8.07,3.91.49-.2.53-1.46.85-2.47h-2.9V9.55h7.7c0,2.6,0,5.18,0,7.75a1.49,1.49,0,0,1-.71,1c-4.2,2.55-8.62,3.08-13.06.87-5.64-2.8-6.46-10-3.74-14.45a1.45,1.45,0,0,1,1-.66C105.87,4.13,107.79,4.3,110.12,4.46Z"/>
                <path fill="#fff" id="Path_92" data-name="Path 92" class="cls-2"
                      d="M62.07,10.76l-5,1.05c.18-3.26-.4-6.09-3.71-7.32a5.17,5.17,0,0,0-5.9,1.25c-2.24,2.36-2.17,5.08-.9,8l-4.8.75A10,10,0,0,1,43.14,3.58,11.58,11.58,0,0,1,56,.92,9.75,9.75,0,0,1,62.07,10.76Z"/>
                <path fill="#fff" id="Path_94" data-name="Path 94"
                      d="M136.39,11.75h-7.45v4.54h8.26V20H124V7l12.53,4.24C136.46,11.4,136.43,11.58,136.39,11.75Z"/>
                <path fill="#fff" id="Path_95" data-name="Path 95" class="cls-2" d="M63.47,4V.5h18V4H75V7.68l-5.1,1.23V4Z"/>
                <path fill="#fff" id="Path_96" data-name="Path 96"
                      d="M42.14,15.28c1.63-.26,3.23-.56,4.83-.74.34,0,.76.37,1.1.63a5.48,5.48,0,0,0,7.68-1l.2-.27a3,3,0,0,1,2.21-1.46c1.26-.23,2.52-.51,3.79-.76-.07,3.92-3.46,7.67-7.68,8.53C49,21.24,44,19.26,42.14,15.28Z"/>
                <path fill="#fff" id="Path_97" data-name="Path 97" class="cls-2" d="M18,.46H22.9V15.54L18,15.18Z"/>
                <path fill="#fff" id="Path_98" data-name="Path 98" class="cls-2" d="M27.28.46h4.54v15l-4.55.21Z"/>
                <path fill="#fff" id="Path_99" data-name="Path 99" class="cls-2"
                      d="M137,.48V3.94h-8.14V7.65c-1.48-.41-2.82-.74-4.12-1.18a1.28,1.28,0,0,1-.74-.88c-.07-1.68,0-3.36,0-5.1Z"/>
                <path fill="#fff" id="Path_100" data-name="Path 100"
                      d="M75,20.06H69.81c0-3.26,0-6.47,0-9.69,0-.27.5-.67.84-.77,1.38-.4,2.78-.7,4.26-1.06Z"/>
                <path fill="#fff" id="Path_101" data-name="Path 101" d="M27.17,20.06V16.44H40.42v3.62Z"/>
                <path fill="#fff" id="Path_102" data-name="Path 102" class="cls-2"
                      d="M104.43,3.05A9.41,9.41,0,0,1,110.35.22a16.68,16.68,0,0,1,7.77.78c1.39.48,2.1,1.12,1.83,2.63a11.32,11.32,0,0,0-.08,1.43Z"/>
                <path fill="#fff" id="Path_103" data-name="Path 103"
                      d="M.07,11c.91.42,1.71.8,2.53,1.15,2.34,1,2.34,1,2.34,3.59v4.35H.07Z"/>
                <path fill="#fff" id="Path_104" data-name="Path 104" class="cls-2"
                      d="M86.26,5.1c.13-.37.18-.56.26-.74,1.67-4,1.67-3.93,6-4,1.07,0,1.66.28,1.9,1.34a13.67,13.67,0,0,0,.68,1.85Z"/>
                <path fill="#fff" id="Path_105" data-name="Path 105" d="M18,20V16l5,.39V20Z"/>
                <path id="Path_106" data-name="Path 106" class="cls-2" d="M136.58,8.09V10.5l-6.35-2.41Z"/>
                <path fill="#fff" d="M95.52,4.35c-3,.52-6,1-8.86,1.57a2.38,2.38,0,0,0-1.41,1.25C83.76,10.41,82.37,13.7,81,17l-1.37,3.15c.87,0,1.24.07,1.84.07,2.69.3,4.2-.33,4.71-2.92a1.6,1.6,0,0,1,1.17-.94c2.53-.09,5.07-.05,7.64-.05.38,1,.69,2,1.12,3a1.54,1.54,0,0,0,1,.84c1.46.09,2.94,0,4.62,0C99.58,14.78,97.58,9.63,95.52,4.35ZM88,12.73h0c.32-.8.64-1.57,1-2.35.47-1.17,1-2.35,1.44-3.58.18-.45.37-.9.55-1.37h0c.15.43.3.84.45,1.25l1.75,4.77c.15.43.31.85.47,1.28Z"/>
                <path class="cls-2"
                      d="M10.39.79A92.17,92.17,0,0,0,0,.71C0,3.52,0,6.35,0,9.18A1.58,1.58,0,0,0,.73,10.3,12.38,12.38,0,0,0,10,12.07c3.14-.68,4.89-2.51,5-5.58C15.09,3.24,13.73,1.17,10.39.79ZM10,6.32a.5.5,0,0,1,0,.12v.08a.34.34,0,0,0,0,.1.93.93,0,0,1,0,.23s0,.07,0,.11a1.25,1.25,0,0,1-.09.25.69.69,0,0,1,0,.13,1.28,1.28,0,0,1-.11.2,1.19,1.19,0,0,1-.09.15l-.12.14A1,1,0,0,1,9.35,8l-.13.1A1.33,1.33,0,0,1,9,8.22l-.11.06-.24.12-.11,0-.28.07H8.18L8,8.53H7.84c-.93.06-1.87,0-2.94,0V4h0a22.17,22.17,0,0,1,3.26,0h0l.18,0,.1,0,.2.06.2.08L9,4.36l.2.13.11.09c.06.06.13.12.18.18l.08.1a1.88,1.88,0,0,1,.16.23l.06.1c0,.09.08.17.11.26l0,.11a1.36,1.36,0,0,1,.06.29s0,.07,0,.1v.37Z"/>
                <g id="Group_7" data-name="Group 7">
                    <path fill="#fff" id="Path_109" data-name="Path 109"
                          d="M7.19,35.13H0v-8.8H1v7.89H6V26.33H7v7.89H8.17L8,37.08H7.19Z"/>
                    <path fill="#fff" id="Path_110" data-name="Path 110"
                          d="M13.59,26.33H20v.9H14.58v3h4.8v.9h-4.8v3.08H20v.9H13.59Z"/>
                    <path fill="#fff" id="Path_111" data-name="Path 111"
                          d="M28.69,30.64l-3.25-4.31h1.17l2.7,3.59L32,26.33h1.16l-3.26,4.3,3.38,4.5H32.08l-2.81-3.78-2.82,3.78H25.31Z"/>
                    <path fill="#fff" id="Path_112" data-name="Path 112"
                          d="M50.65,26.33H54c2,0,3.29,1.06,3.29,2.81S55.66,32,53.78,32H51.65v3.1h-1V26.33Zm3.17,4.79c1.46,0,2.41-.78,2.41-2s-.94-1.91-2.36-1.91H51.65v3.87Z"/>
                    <path fill="#fff" id="Path_113" data-name="Path 113"
                          d="M66.27,26.27h.93l4,8.86H70.14l-1-2.33H64.32l-1,2.33h-1Zm2.45,5.64-2-4.49-2,4.49Z"/>
                    <path fill="#fff" id="Path_114" data-name="Path 114"
                          d="M76.52,30.73a4.42,4.42,0,0,1,4.31-4.55H81a4.49,4.49,0,0,1,3.4,1.42l-.65.7A3.83,3.83,0,0,0,81,27.09a3.64,3.64,0,0,0,0,7.26,3.85,3.85,0,0,0,2.84-1.26l.65.69a4.57,4.57,0,0,1-3.52,1.5,4.4,4.4,0,0,1-4.41-4.38A.91.91,0,0,1,76.52,30.73Z"/>
                    <path fill="#fff" id="Path_115" data-name="Path 115" d="M90.14,26.33h6.94v8.8h-1V27.24h-5v7.89h-1Z"/>
                    <path fill="#fff" id="Path_116" data-name="Path 116"
                          d="M103.53,26.33h1v7.3l5.26-7.3h.94v8.8h-1v-7.3l-5.24,7.3h-1Z"/>
                    <path fill="#fff" id="Path_117" data-name="Path 117"
                          d="M115.86,35l.2-.8a2.6,2.6,0,0,0,.78.13c.68,0,1.82-.42,1.82-6.41v-1.6h5.69v8.8h-1V27.24h-3.74v1c0,6.17-1.26,7-2.61,7A3.77,3.77,0,0,1,115.86,35Z"/>
                    <path fill="#fff" id="Path_118" data-name="Path 118"
                          d="M134.06,26.27H135l4,8.86h-1.07l-1-2.33h-4.78l-1.05,2.33h-1Zm2.45,5.64-2-4.49-2,4.49Z"/>
                </g>
            </g>
        </g>
    </g>
</svg>