<?xml version="1.0" encoding="UTF-8"?>
<svg id="_Слой_2" data-name="Слой 2" xmlns="http://www.w3.org/2000/svg" viewBox="0 0 351.97 242.24">
  <defs>
    <style>
      .cls-1 {
        fill: #329947;
      }

      .cls-2 {
        fill: #f3f2f2;
      }

      .cls-3 {
        fill: #b41f36;
      }

      .cls-4 {
        fill: #0f549d;
      }
    </style>
  </defs>
  <g id="Capa_1" data-name="Capa 1">
    <path class="cls-4" d="M16.29,242.24h58.46c20.56,0,44.32-19.27,44.32-44.33V0h-56.53C36.21,0,16.29,16.7,16.29,45.61v196.63Z"/>
    <path class="cls-3" d="M131.93,242.24h58.46c20.56,0,44.33-19.27,44.33-44.33V0h-56.54c-26.35,0-46.26,16.7-46.26,45.61v196.63h0Z"/>
    <path class="cls-1" d="M249.17,242.24h58.46c20.56,0,44.33-19.27,44.33-44.33V0h-56.53c-26.34,0-46.26,16.7-46.26,45.61v196.63h0Z"/>
    <g>
      <path class="cls-2" d="M16.06,128.14H0c4.5,17.99,25.7,32.13,49.47,32.13,21.84,0,51.4-12.21,51.4-35.34v-41.76h-36.62v41.76c0,12.21-9.64,21.85-23.13,21.85-12.2,0-23.13-7.71-25.06-18.64Z"/>
      <path class="cls-2" d="M336.6,136.49c0,9.63-8.34,17.34-19.27,17.34h-80.95v-70.67h80.95c9.63,0,17.99,8.35,17.99,17.99s-8.36,17.99-17.99,17.99c10.93,0,19.27,7.71,19.27,17.34ZM267.22,115.29h25.06c6.42,0,12.21-5.78,12.21-12.21s-5.78-12.21-12.21-12.21h-25.06v24.42ZM292.92,146.12c6.42,0,12.21-5.78,12.21-12.21s-5.79-12.21-12.21-12.21h-25.7v24.41h25.7Z"/>
      <path class="cls-2" d="M217.02,141.63v12.21h-61.68c-19.27,0-35.33-16.06-35.33-35.33s16.06-35.33,35.33-35.33h61.68v12.85c-14.78-3.21-28.92-5.14-35.98-5.14-15.41,0-27.62,12.21-27.62,27.62s12.21,27.62,27.62,27.62c7.06,0,21.21-1.29,35.98-4.5Z"/>
    </g>
  </g>
</svg>