<?xml version="1.0" encoding="UTF-8"?>
<svg id="_Слой_2" data-name="Слой 2" xmlns="http://www.w3.org/2000/svg" viewBox="0 0 999.2 776">
  <defs>
    <style>
      .cls-1 {
        fill: #eb001b;
      }

      .cls-2 {
        fill: #ff5a00;
      }

      .cls-3 {
        fill: #f79e1b;
      }
    </style>
  </defs>
  <g id="svg3409">
    <path d="M181.1,774.3v-51.5c0-19.7-12-32.6-32.6-32.6-10.3,0-21.5,3.4-29.2,14.6-6-9.4-14.6-14.6-27.5-14.6-8.6,0-17.2,2.6-24,12v-10.3h-18v82.4h18v-45.5c0-14.6,7.7-21.5,19.7-21.5s18,7.7,18,21.5v45.5h18v-45.5c0-14.6,8.6-21.5,19.7-21.5,12,0,18,7.7,18,21.5v45.5h19.9ZM448.1,691.9h-29.2v-24.9h-18v24.9h-16.3v16.3h16.3v37.8c0,18.9,7.7,30,28.3,30,7.7,0,16.3-2.6,22.3-6l-5.2-15.5c-5.2,3.4-11.2,4.3-15.5,4.3-8.6,0-12-5.2-12-13.7v-36.9h29.2v-16.3h.1ZM600.9,690.1c-10.3,0-17.2,5.2-21.5,12v-10.3h-18v82.4h18v-46.4c0-13.7,6-21.5,17.2-21.5,3.4,0,7.7.9,11.2,1.7l5.2-17.2c-3.6-.7-8.7-.7-12.1-.7h0ZM370,698.7c-8.6-6-20.6-8.6-33.5-8.6-20.6,0-34.3,10.3-34.3,26.6,0,13.7,10.3,21.5,28.3,24l8.6.9c9.4,1.7,14.6,4.3,14.6,8.6,0,6-6.9,10.3-18.9,10.3s-21.5-4.3-27.5-8.6l-8.6,13.7c9.4,6.9,22.3,10.3,35.2,10.3,24,0,37.8-11.2,37.8-26.6,0-14.6-11.2-22.3-28.3-24.9l-8.6-.9c-7.7-.9-13.7-2.6-13.7-7.7,0-6,6-9.4,15.5-9.4,10.3,0,20.6,4.3,25.8,6.9l7.6-14.6h0ZM848.9,690.1c-10.3,0-17.2,5.2-21.5,12v-10.3h-18v82.4h18v-46.4c0-13.7,6-21.5,17.2-21.5,3.4,0,7.7.9,11.2,1.7l5.2-17c-3.5-.9-8.6-.9-12.1-.9h0ZM618.9,733.1c0,24.9,17.2,42.9,43.8,42.9,12,0,20.6-2.6,29.2-9.4l-8.6-14.6c-6.9,5.2-13.7,7.7-21.5,7.7-14.6,0-24.9-10.3-24.9-26.6s10.3-25.8,24.9-26.6c7.7,0,14.6,2.6,21.5,7.7l8.6-14.6c-8.6-6.9-17.2-9.4-29.2-9.4-26.6-.1-43.8,18-43.8,42.9h0ZM785.4,733.1v-41.2h-18v10.3c-6-7.7-14.6-12-25.8-12-23.2,0-41.2,18-41.2,42.9s18,42.9,41.2,42.9c12,0,20.6-4.3,25.8-12v10.3h18v-41.2h0ZM719.3,733.1c0-14.6,9.4-26.6,24.9-26.6,14.6,0,24.9,11.2,24.9,26.6,0,14.6-10.3,26.6-24.9,26.6-15.4-.9-24.9-12.1-24.9-26.6h0ZM503.9,690.1c-24,0-41.2,17.2-41.2,42.9s17.2,42.9,42.1,42.9c12,0,24-3.4,33.5-11.2l-8.6-12.9c-6.9,5.2-15.5,8.6-24,8.6-11.2,0-22.3-5.2-24.9-19.7h60.9v-6.9c.8-26.5-14.7-43.7-37.8-43.7h0ZM503.9,705.6c11.2,0,18.9,6.9,20.6,19.7h-42.9c1.7-11.1,9.4-19.7,22.3-19.7h0ZM951.1,733.1v-73.8h-18v42.9c-6-7.7-14.6-12-25.8-12-23.2,0-41.2,18-41.2,42.9s18,42.9,41.2,42.9c12,0,20.6-4.3,25.8-12v10.3h18v-41.2h0ZM885,733.1c0-14.6,9.4-26.6,24.9-26.6,14.6,0,24.9,11.2,24.9,26.6,0,14.6-10.3,26.6-24.9,26.6-15.5-.9-24.9-12.1-24.9-26.6h0ZM282.4,733.1v-41.2h-18v10.3c-6-7.7-14.6-12-25.8-12-23.2,0-41.2,18-41.2,42.9s18,42.9,41.2,42.9c12,0,20.6-4.3,25.8-12v10.3h18v-41.2h0ZM215.5,733.1c0-14.6,9.4-26.6,24.9-26.6,14.6,0,24.9,11.2,24.9,26.6,0,14.6-10.3,26.6-24.9,26.6-15.5-.9-24.9-12.1-24.9-26.6Z"/>
    <g>
      <rect id="rect19" class="cls-2" x="364" y="66.1" width="270.4" height="485.8"/>
      <path class="cls-1" d="M382,309c0-98.7,46.4-186.3,117.6-242.9C447.2,24.9,381.1,0,309,0,138.2,0,0,138.2,0,309s138.2,309,309,309c72.1,0,138.2-24.9,190.6-66.1-71.3-55.8-117.6-144.2-117.6-242.9Z"/>
      <path id="path22" class="cls-3" d="M999.2,309c0,170.8-138.2,309-309,309-72.1,0-138.2-24.9-190.6-66.1,72.1-56.7,117.6-144.2,117.6-242.9s-46.4-186.3-117.6-242.9C551.9,24.9,618,0,690.1,0c170.9,0,309.1,139.1,309.1,309Z"/>
    </g>
  </g>
</svg>