<svg width="170" height="157" data-name="Слой 2" xmlns="http://www.w3.org/2000/svg" viewBox="0 0 126 116.17">
  <defs>
    <style>
      .cls-1 {
        fill: none;
        stroke: #ad2125;
        stroke-linecap: round;
        stroke-linejoin: round;
      }
    </style>
  </defs>
  <g id="Layer_1" data-name="Layer 1">
    <g>
      <path class="cls-1" d="m.5,115.67V7.25C.5,3.52,3.52.5,7.25.5h97.55"/>
      <path class="cls-1" d="m98.24.5h20.51c3.73,0,6.75,3.02,6.75,6.75v108.42"/>
      <line class="cls-1" x1="9.26" y1="13.47" x2="116.74" y2="13.47"/>
      <g>
        <line class="cls-1" x1="9.26" y1="7.43" x2="9.26" y2="7.43"/>
        <line class="cls-1" x1="14.46" y1="7.43" x2="14.46" y2="7.43"/>
        <line class="cls-1" x1="19.65" y1="7.43" x2="19.65" y2="7.43"/>
      </g>
    </g>
    <rect class="cls-1" x="9.26" y="57.58" width="6.91" height="6.91"/>
    <rect class="cls-1" x="9.26" y="41.27" width="6.91" height="6.91"/>
    <rect class="cls-1" x="9.26" y="25.91" width="6.91" height="6.91"/>
    <line class="cls-1" x1="22.78" y1="61.03" x2="72.93" y2="61.03"/>
    <rect class="cls-1" x="9.26" y="74.37" width="6.91" height="6.91"/>
    <line class="cls-1" x1="22.78" y1="77.82" x2="61.92" y2="77.82"/>
    <line class="cls-1" x1="22.78" y1="44.15" x2="53.11" y2="44.15"/>
    <line class="cls-1" x1="61.92" y1="44.15" x2="77.36" y2="44.15"/>
    <line class="cls-1" x1="22.78" y1="28.79" x2="33.88" y2="28.79"/>
    <line class="cls-1" x1="44.64" y1="28.79" x2="84.55" y2="28.79"/>
    <g>
      <g>
        <line class="cls-1" x1="108.61" y1="71.67" x2="93.88" y2="86.4"/>
        <circle class="cls-1" cx="95.29" cy="74.06" r="3.92"/>
        <circle class="cls-1" cx="106.63" cy="84.42" r="3.92"/>
      </g>
      <path class="cls-1" d="m104.13,47.76c0,1.75-1.42,3.17-3.17,3.17s-3.17-1.42-3.17-3.17,1.42-3.17,3.17-3.17,3.17,1.42,3.17,3.17Z"/>
      <g>
        <line class="cls-1" x1="89.37" y1="59.14" x2="89.41" y2="59.14"/>
        <line class="cls-1" x1="93.23" y1="59.14" x2="93.27" y2="59.14"/>
        <line class="cls-1" x1="97.09" y1="59.14" x2="97.12" y2="59.14"/>
        <line class="cls-1" x1="100.94" y1="59.14" x2="100.98" y2="59.14"/>
        <line class="cls-1" x1="104.8" y1="59.14" x2="104.84" y2="59.14"/>
        <line class="cls-1" x1="108.66" y1="59.14" x2="108.7" y2="59.14"/>
        <line class="cls-1" x1="112.52" y1="59.14" x2="112.56" y2="59.14"/>
      </g>
      <path class="cls-1" d="m100.87,48.1c3.16-.88,4.24-6.88,2.42-13.4-1.82-6.52-5.86-11.08-9.02-10.2,0,0-3.68,1.23-1.25,9.19"/>
      <path class="cls-1" d="m115.85,59.14c0-1.02.63-1.89,1.52-2.25v-9.85l-9.54-9.83h-13.75l-9.54,9.83v9.85c.89.36,1.52,1.23,1.52,2.25s-.63,1.89-1.52,2.25v30.97c0,2.93,2.38,5.31,5.31,5.31h22.21c2.93,0,5.31-2.38,5.31-5.31v-30.97c-.89-.36-1.52-1.23-1.52-2.25Z"/>
    </g>
  </g>
</svg>
