<svg xmlns="http://www.w3.org/2000/svg" viewBox="0 0 745.17 171.39"><g id="Слой_2" data-name="Слой 2"><g id="svg3987"><g id="layer1"><path id="path912" d="M165.08,0V58.09H738.53V0ZM0,93.84v77.55H112.51V156.93H53V140.11h59.54V125.26H52.71v-17h59.8V93.84Z" fill="#d4082c"/><path id="path924" d="M188.61,93.84a23.58,23.58,0,0,0-23.53,23.66v53.89H267.21s.13-10.37.13-11.43a1.51,1.51,0,0,0-1.58-1.58c-.8,0-66.9,0-66.9,0V139.19H257v-11.3a1.46,1.46,0,0,0-1.57-1.58H198.86V106.72h68.35V95.16c0-1-.62-1.32-1.45-1.32Zm116.05,0a23.59,23.59,0,0,0-23.52,23.66v53.89h103v-43.5a1.67,1.67,0,0,0-1.57-1.58c-.71,0-36.29.13-45,.13a1.45,1.45,0,0,0-1.57,1.45v11.3h34.7v18h-56V106.59h69.39V95.16c0-1-.61-1.32-1.57-1.32Zm118.56,0a23.6,23.6,0,0,0-23.53,23.66v53.89H502.74v-43.5a1.57,1.57,0,0,0-1.45-1.58c-.71,0-36.28.13-45,.13a1.35,1.35,0,0,0-1.45,1.45c0,.78-.13,11.3-.13,11.3h34.7v18h-56V106.59h69.27V95.16c0-1-.49-1.32-1.45-1.32Zm118.82,0a23.58,23.58,0,0,0-23.53,23.66v53.89H620.63V160a1.41,1.41,0,0,0-1.44-1.58c-.81,0-66.9,0-66.9,0V139.19h58v-11.3c0-1-.48-1.58-1.45-1.58H552.29V106.72h68.34V95.16c0-1-.75-1.32-1.57-1.32Zm115.79,0a23.49,23.49,0,0,0-23.4,23.66v53.89h33.65v-32.2s35.93,30.8,34.7,30c1.56,1.25,2.28,2.26,3.81,2.23h36.93c3.64,0,.14-2.76.14-2.76L709,139.19h9.2c11.25,0,20.37-11.45,20.37-22.74s-9-22.61-20.24-22.61Zm10.25,12.88h45.48c3.89,0,8.8,3,8.8,9.86,0,6.16-5.21,9.86-8.8,9.86H668.08Z"/></g></g></g></svg>