<svg xmlns="http://www.w3.org/2000/svg" viewBox="0 0 255.86 106.31"><g id="Слой_2" data-name="Слой 2"><g id="Слой_1-2" data-name="Слой 1"><polygon points="9.99 93.37 46.24 93.49 91.04 51.81 77.6 51.81 133.78 0 110.78 0 9.99 93.37" fill="#e20042" fill-rule="evenodd"/><polygon points="19.58 72.32 27.17 72.32 105.15 0 97.56 0 19.58 72.32" fill="#ee7e33" fill-rule="evenodd"/><polygon points="11.4 57.02 29.25 57.02 90.33 0 72.48 0 11.4 57.02" fill="#fdc800" fill-rule="evenodd"/><polygon points="12.08 34.22 0 45.47 13.08 45.47 25.16 34.22 12.08 34.22" fill="#ffea00" fill-rule="evenodd"/><polygon points="114.16 51.81 91.04 51.81 147.22 0 170.34 0 114.16 51.81" fill="#b0c907" fill-rule="evenodd"/><polygon points="126.7 44.62 174.83 0 179.41 0 131.28 44.62 126.7 44.62" fill="#0d9bd7" fill-rule="evenodd"/><polygon points="168.78 34.94 150.34 34.94 134.33 50.47 152.78 50.47 168.78 34.94" fill="#004387" fill-rule="evenodd"/><path d="M225.12,71.46v1.27A1.12,1.12,0,0,0,226.38,74h3.43a1.12,1.12,0,0,1,1.27,1.27V87.21a1.11,1.11,0,0,0,1.26,1.26h1.27a1.11,1.11,0,0,0,1.26-1.26V75.27A1.12,1.12,0,0,1,236.14,74h3.43a1.11,1.11,0,0,0,1.26-1.26V71.47a1.12,1.12,0,0,0-1.26-1.26h-13.2a1.11,1.11,0,0,0-1.25,1.25M208.58,84.68c0,2.54,2.54,3.8,7.61,3.8s7.61-1.26,7.61-3.8V81.24c0-2.54-2.54-3.8-7.61-3.8-2.54,0-3.81-.42-3.81-1.27v-.89c0-.85,1.27-1.27,3.81-1.27s3.8.42,3.8,1.27a1.12,1.12,0,0,0,1.27,1.26h1.26a1.12,1.12,0,0,0,1.27-1.26V74c0-2.54-2.54-3.8-7.61-3.8s-7.61,1.27-7.61,3.8v3.44c0,2.54,2.54,3.8,7.61,3.8,2.54,0,3.8.43,3.8,1.27v.89c0,.85-1.26,1.27-3.8,1.27s-3.81-.42-3.81-1.27a1.11,1.11,0,0,0-1.26-1.26h-1.27a1.11,1.11,0,0,0-1.26,1.26v1.28ZM179.43,70.2h-1.27a1.12,1.12,0,0,0-1.26,1.26V84.68c0,2.54,2.54,3.8,7.61,3.8h2.54a1.11,1.11,0,0,0,1.26-1.26V86a1.11,1.11,0,0,0-1.26-1.26h-2.54c-2.54,0-3.81-.42-3.81-1.27v-12A1.12,1.12,0,0,0,179.43,70.2ZM149,84.68c-2.54,0-3.81-.42-3.81-1.27V75.27c0-.76,1.27-1.23,3.81-1.27s3.8.43,3.8,1.27v8.14C152.82,84.26,151.55,84.68,149,84.68Zm-7.61,0c0,2.54,2.54,3.8,7.61,3.8s7.61-1.26,7.61-3.8V74c0-2.54-2.54-3.8-7.61-3.8s-7.61,1.27-7.61,3.8ZM130,70.2h-1.27a1.12,1.12,0,0,0-1.26,1.26V84.68c0,2.54,2.54,3.8,7.61,3.8h2.54a1.11,1.11,0,0,0,1.26-1.26V86a1.11,1.11,0,0,0-1.26-1.26h-2.54c-2.54,0-3.81-.42-3.81-1.27v-12A1.12,1.12,0,0,0,130,70.2Zm-12.51,6.86h-.16c-5.07,0-7.61,1.26-7.61,3.8v3.81c0,2.54,2.54,3.8,7.61,3.8h6.34a1.12,1.12,0,0,0,1.27-1.26V74c0-2.54-2.54-3.8-7.61-3.8H111a1.12,1.12,0,0,0-1.26,1.26v1.27A1.11,1.11,0,0,0,111,74h7.61c1.7,0,2.54.42,2.54,1.27V83.4a1.12,1.12,0,0,1-1.26,1.27h-2.54c-2.54,0-3.81-.42-3.81-1.27V82.14c0-.85,1.27-1.27,3.81-1.27H118a1.1,1.1,0,0,0,1.2-1.26V78.33a1.11,1.11,0,0,0-1.26-1.26h-.43Zm49.1.74h.17c2.54,0,3.8-.42,3.8-1.27V75.27c0-.85-1.27-1.27-3.8-1.27h-2.54A1.12,1.12,0,0,0,163,75.27v12a1.11,1.11,0,0,1-1.26,1.26h-1.27a1.11,1.11,0,0,1-1.26-1.26V71.46a1.11,1.11,0,0,1,1.26-1.26h6.35q7.6,0,7.61,3.8v3.81c0,2.54-2.54,3.8-7.61,3.8h-.6a1.11,1.11,0,0,1-1.26-1.26V79.08a1.11,1.11,0,0,1,1.26-1.26h.42Zm32-.74h-.16c-5.07,0-7.61,1.26-7.61,3.8v3.81c0,2.54,2.54,3.8,7.61,3.8h6.34a1.12,1.12,0,0,0,1.27-1.26V74c0-2.54-2.54-3.8-7.61-3.8h-6.35a1.12,1.12,0,0,0-1.26,1.26v1.27A1.11,1.11,0,0,0,192.09,74h7.61c1.7,0,2.54.42,2.54,1.27V83.4A1.12,1.12,0,0,1,201,84.67h-2.54c-2.54,0-3.81-.42-3.81-1.27V82.14c0-.85,1.27-1.27,3.81-1.27h.65a1.1,1.1,0,0,0,1.2-1.26V78.33A1.11,1.11,0,0,0,199,77.07h-.43Zm-99-6.86Q92,70.2,92,74V84.68c0,2.54,2.54,3.8,7.61,3.8s7.61-1.26,7.61-3.8V78.33a1.11,1.11,0,0,0-1.27-1.26h-5.07a1.11,1.11,0,0,0-1.26,1.26V79.6a1.11,1.11,0,0,0,1.26,1.26h1.27a1.11,1.11,0,0,1,1.26,1.27v1.26c0,.85-1.26,1.27-3.8,1.27s-3.81-.42-3.81-1.27V75.25C95.77,74.4,97,74,99.58,74h6.34a1.12,1.12,0,0,0,1.27-1.26V71.45a1.12,1.12,0,0,0-1.27-1.26H99.58Z" fill="#1d1d1b"/><path d="M184.51,100.7h-.69a4.06,4.06,0,0,0-.75.06,1.6,1.6,0,0,0-.51.19.88.88,0,0,0-.29.32.93.93,0,0,0-.09.42.8.8,0,0,0,.26.64,1,1,0,0,0,.71.23,1.35,1.35,0,0,0,.71-.19,3,3,0,0,0,.65-.57v-1.1Zm1.79,2.76a.19.19,0,0,1-.07.16.51.51,0,0,1-.23.08,3.62,3.62,0,0,1-.93,0,.42.42,0,0,1-.21-.08.21.21,0,0,1-.06-.16V103a3.25,3.25,0,0,1-.9.67,2.63,2.63,0,0,1-1.13.24,3.1,3.1,0,0,1-.94-.13,2,2,0,0,1-.74-.4,1.86,1.86,0,0,1-.49-.65,2.14,2.14,0,0,1-.17-.91,2,2,0,0,1,.22-1,1.89,1.89,0,0,1,.66-.69,3.31,3.31,0,0,1,1.09-.4,7.52,7.52,0,0,1,1.51-.13h.63v-.39a2.09,2.09,0,0,0-.06-.53.92.92,0,0,0-.2-.38.77.77,0,0,0-.37-.22,2,2,0,0,0-.58-.07,2.9,2.9,0,0,0-.81.1,5.07,5.07,0,0,0-.63.22l-.46.22a.62.62,0,0,1-.3.1.24.24,0,0,1-.14-.05.36.36,0,0,1-.1-.15,1.09,1.09,0,0,1-.06-.23,1.47,1.47,0,0,1,0-.31,1.56,1.56,0,0,1,0-.35.43.43,0,0,1,.14-.23,1.23,1.23,0,0,1,.35-.23,4.86,4.86,0,0,1,.59-.23,6.18,6.18,0,0,1,.74-.18,4.5,4.5,0,0,1,.83-.07,4.89,4.89,0,0,1,1.3.15,2.11,2.11,0,0,1,.88.46,1.81,1.81,0,0,1,.51.79,3.59,3.59,0,0,1,.16,1.15v4.32Zm-7-.06a.23.23,0,0,1-.17.25,1.89,1.89,0,0,1-.64.07h-.45a.83.83,0,0,1-.26,0,.23.23,0,0,1-.12-.08.39.39,0,0,1,0-.14l-.38-3.46c0-.13,0-.27,0-.42s0-.31,0-.47l0-.47c0-.16,0-.3,0-.42V98c0,.13-.07.27-.11.43s-.09.31-.13.47-.1.32-.14.47-.08.3-.12.42l-1.13,3.57a.38.38,0,0,1-.09.15.5.5,0,0,1-.16.11,1.37,1.37,0,0,1-.27.06l-.41,0-.38,0a.91.91,0,0,1-.26-.06.38.38,0,0,1-.16-.11.4.4,0,0,1-.08-.16l-1.11-3.56c0-.13-.08-.27-.13-.42s-.09-.31-.14-.47-.09-.32-.13-.47-.08-.3-.11-.43v.18l0,.42c0,.16,0,.31,0,.47s0,.31,0,.47l0,.42-.37,3.42a.75.75,0,0,1-.05.16.27.27,0,0,1-.14.1.93.93,0,0,1-.27,0h-.86a.89.89,0,0,1-.23,0,.22.22,0,0,1-.11-.1.37.37,0,0,1,0-.16l.63-6a.73.73,0,0,1,.2-.47.74.74,0,0,1,.51-.16h.92a2.37,2.37,0,0,1,.49,0,1,1,0,0,1,.35.15.75.75,0,0,1,.25.3,1.93,1.93,0,0,1,.18.47l.72,2.21c0,.14.09.29.13.45s.09.31.13.47l.12.46c0,.15.07.28.1.41h0c0-.13.06-.27.1-.43l.12-.47c0-.16.08-.32.13-.47s.09-.3.13-.43l.72-2.2a2.75,2.75,0,0,1,.16-.44,1,1,0,0,1,.22-.3,1,1,0,0,1,.34-.17,2.27,2.27,0,0,1,.5,0H178a.69.69,0,0,1,.51.16.71.71,0,0,1,.2.47Zm-15.69-3.89a1.82,1.82,0,0,0-.31-1.2,1.19,1.19,0,0,0-1-.44,1.26,1.26,0,0,0-.6.13,1.33,1.33,0,0,0-.43.35,1.69,1.69,0,0,0-.26.52,2.6,2.6,0,0,0-.1.64Zm1.76.52a.7.7,0,0,1-.15.49.51.51,0,0,1-.41.16h-3.92a2.52,2.52,0,0,0,.1.75,1.57,1.57,0,0,0,.31.57,1.32,1.32,0,0,0,.55.36,2.39,2.39,0,0,0,.81.12,4.19,4.19,0,0,0,.84-.07l.63-.15.44-.15a.75.75,0,0,1,.28-.07l.11,0a.22.22,0,0,1,.07.09.6.6,0,0,1,0,.18,2.63,2.63,0,0,1,0,.3,2.1,2.1,0,0,1,0,.27c0,.07,0,.14,0,.19a.4.4,0,0,1,0,.13.25.25,0,0,1-.08.1,1,1,0,0,1-.26.14,4.8,4.8,0,0,1-.53.17c-.22.05-.46.1-.74.14a6.37,6.37,0,0,1-.9.06,4.66,4.66,0,0,1-1.51-.22A2.59,2.59,0,0,1,160,103a2.84,2.84,0,0,1-.65-1.11,5.28,5.28,0,0,1-.21-1.57,5,5,0,0,1,.22-1.55,3.17,3.17,0,0,1,.65-1.17,2.84,2.84,0,0,1,1-.73,4,4,0,0,1,2.76,0,2.49,2.49,0,0,1,1.48,1.66,4.15,4.15,0,0,1,.17,1.25V100ZM153,101.37a1.25,1.25,0,0,0-.07-.45.81.81,0,0,0-.25-.34,1.06,1.06,0,0,0-.44-.21,2.6,2.6,0,0,0-.67-.07h-.45l-.39,0v2.08l.41,0h.47a1.64,1.64,0,0,0,1.06-.29A1,1,0,0,0,153,101.37ZM150.77,99l.5,0h.56a5,5,0,0,1,1.37.16,2.56,2.56,0,0,1,1,.47,1.89,1.89,0,0,1,.56.73,2.52,2.52,0,0,1,.18,1,2.68,2.68,0,0,1-.2,1,2.15,2.15,0,0,1-.63.81,3.05,3.05,0,0,1-1.07.52,5.84,5.84,0,0,1-1.55.18h-1l-.46,0-.43,0a.71.71,0,0,1-.5-.21.77.77,0,0,1-.16-.52V97a.2.2,0,0,1,0-.13.28.28,0,0,1,.14-.09,1.46,1.46,0,0,1,.27,0l.41,0a2.59,2.59,0,0,1,.74.07c.14,0,.21.12.21.22v2Zm6.88,4.46a.2.2,0,0,1,0,.13.35.35,0,0,1-.15.09,1.46,1.46,0,0,1-.27,0l-.45,0-.43,0a1.43,1.43,0,0,1-.28,0,.27.27,0,0,1-.15-.09.2.2,0,0,1,0-.13V97a.2.2,0,0,1,0-.13.27.27,0,0,1,.15-.09,1.43,1.43,0,0,1,.28,0l.43,0,.45,0a1.19,1.19,0,0,1,.27,0,.27.27,0,0,1,.15.09.18.18,0,0,1,0,.13Zm-10.53,0a.2.2,0,0,1,0,.13.35.35,0,0,1-.15.09,1.43,1.43,0,0,1-.28,0l-.44,0-.44,0a1.43,1.43,0,0,1-.28,0,.21.21,0,0,1-.14-.09.2.2,0,0,1,0-.13v-2.53H142.7v2.53a.2.2,0,0,1,0,.13.35.35,0,0,1-.15.09,1.43,1.43,0,0,1-.28,0l-.44,0-.44,0a1.43,1.43,0,0,1-.28,0,.27.27,0,0,1-.15-.09.2.2,0,0,1,0-.13V97a.2.2,0,0,1,0-.13.27.27,0,0,1,.15-.09,1.43,1.43,0,0,1,.28,0l.44,0,.44,0a1.43,1.43,0,0,1,.28,0,.27.27,0,0,1,.15.09.18.18,0,0,1,0,.13v2.41h2.61V97a.2.2,0,0,1,0-.13.28.28,0,0,1,.14-.09,1.43,1.43,0,0,1,.28,0l.44,0,.44,0a1.43,1.43,0,0,1,.28,0,.27.27,0,0,1,.15.09.18.18,0,0,1,0,.13Zm-8.05,0a.2.2,0,0,1,0,.13.35.35,0,0,1-.15.09,1.43,1.43,0,0,1-.28,0l-.44,0-.44,0a1.43,1.43,0,0,1-.28,0,.27.27,0,0,1-.15-.09.28.28,0,0,1,0-.13v-2.22a3.83,3.83,0,0,1-.75.23,4.79,4.79,0,0,1-.88.08,3.75,3.75,0,0,1-1.21-.17,1.93,1.93,0,0,1-.77-.49,1.82,1.82,0,0,1-.41-.73,4,4,0,0,1-.12-1.07V97a.2.2,0,0,1,0-.13.21.21,0,0,1,.14-.09,1.43,1.43,0,0,1,.28,0l.44,0,.44,0,.28,0a.27.27,0,0,1,.15.09.18.18,0,0,1,0,.13v1.8a2.41,2.41,0,0,0,.07.7.9.9,0,0,0,.2.35.74.74,0,0,0,.32.19,1.45,1.45,0,0,0,.43,0,3.08,3.08,0,0,0,.68-.08,3.42,3.42,0,0,0,.65-.24V97a.2.2,0,0,1,0-.13.27.27,0,0,1,.15-.09,1.43,1.43,0,0,1,.28,0l.44,0,.44,0a1.43,1.43,0,0,1,.28,0,.27.27,0,0,1,.15.09.18.18,0,0,1,0,.13v6.44Zm-8.71-3.21a4.06,4.06,0,0,0-.08-.88,2.08,2.08,0,0,0-.26-.7,1.25,1.25,0,0,0-.48-.46,1.54,1.54,0,0,0-.75-.17,1.58,1.58,0,0,0-.71.15,1.29,1.29,0,0,0-.5.43,2,2,0,0,0-.29.69,4.15,4.15,0,0,0-.1.91,4.06,4.06,0,0,0,.08.88,2.08,2.08,0,0,0,.26.7,1.25,1.25,0,0,0,.48.46,1.54,1.54,0,0,0,.75.16,1.62,1.62,0,0,0,.72-.15,1.29,1.29,0,0,0,.5-.43,2.12,2.12,0,0,0,.29-.68A4.92,4.92,0,0,0,130.36,100.23Zm1.87-.08a4.73,4.73,0,0,1-.22,1.5,3.36,3.36,0,0,1-.66,1.17,2.89,2.89,0,0,1-1.1.76,4.09,4.09,0,0,1-1.55.27,4.19,4.19,0,0,1-1.49-.24,2.67,2.67,0,0,1-1-.69,2.78,2.78,0,0,1-.62-1.12,5,5,0,0,1-.2-1.52,4.83,4.83,0,0,1,.22-1.51,3.36,3.36,0,0,1,.66-1.17,3,3,0,0,1,1.1-.75,4.09,4.09,0,0,1,1.55-.27,4.46,4.46,0,0,1,1.5.23,2.75,2.75,0,0,1,1,.69,2.9,2.9,0,0,1,.62,1.12A5.93,5.93,0,0,1,132.23,100.15Zm-8,3.25a.23.23,0,0,1-.17.25,1.89,1.89,0,0,1-.64.07H123a.83.83,0,0,1-.26,0,.23.23,0,0,1-.12-.08.39.39,0,0,1,0-.14l-.38-3.46c0-.13,0-.27,0-.42s0-.31,0-.47l0-.47c0-.16,0-.3,0-.42V98c0,.13-.07.27-.11.43s-.09.31-.13.47-.1.32-.14.47-.08.3-.12.42l-1.13,3.57a.38.38,0,0,1-.09.15.5.5,0,0,1-.16.11,1.37,1.37,0,0,1-.27.06l-.41,0-.38,0a.91.91,0,0,1-.26-.06.38.38,0,0,1-.16-.11.4.4,0,0,1-.08-.16l-1.11-3.56c0-.13-.08-.27-.13-.42s-.09-.31-.14-.47-.09-.32-.13-.47-.08-.3-.11-.43v.18q0,.2,0,.42c0,.16,0,.31,0,.47s0,.31,0,.47,0,.29,0,.42l-.37,3.42a.75.75,0,0,1,0,.16.27.27,0,0,1-.14.1.93.93,0,0,1-.27,0h-.86a.89.89,0,0,1-.23,0,.22.22,0,0,1-.11-.1.37.37,0,0,1,0-.16l.63-6a.73.73,0,0,1,.2-.47.74.74,0,0,1,.51-.16h.92a2.37,2.37,0,0,1,.49,0,1,1,0,0,1,.35.15.75.75,0,0,1,.25.3,1.93,1.93,0,0,1,.18.47l.72,2.21c0,.14.09.29.13.45s.09.31.13.47l.12.46c0,.15.07.28.1.41h0c0-.13.06-.27.1-.43l.12-.47c0-.16.08-.32.13-.47s.09-.3.14-.43l.72-2.2a2.75,2.75,0,0,1,.16-.44,1,1,0,0,1,.22-.3,1,1,0,0,1,.34-.17,2.27,2.27,0,0,1,.5,0h.91a.69.69,0,0,1,.51.16.71.71,0,0,1,.2.47Zm-12.39-3.17a4.06,4.06,0,0,0-.08-.88,2.08,2.08,0,0,0-.26-.7,1.25,1.25,0,0,0-.48-.46,1.54,1.54,0,0,0-.75-.17,1.58,1.58,0,0,0-.71.15,1.29,1.29,0,0,0-.5.43,2,2,0,0,0-.29.69,4.15,4.15,0,0,0-.1.91,4.06,4.06,0,0,0,.08.88,2.08,2.08,0,0,0,.26.7,1.25,1.25,0,0,0,.48.46,1.54,1.54,0,0,0,.75.16,1.62,1.62,0,0,0,.72-.15,1.29,1.29,0,0,0,.5-.43,2.12,2.12,0,0,0,.29-.68A4.92,4.92,0,0,0,111.86,100.23Zm1.87-.08a4.73,4.73,0,0,1-.22,1.5,3.21,3.21,0,0,1-.66,1.17,2.89,2.89,0,0,1-1.1.76,4.09,4.09,0,0,1-1.55.27,4.19,4.19,0,0,1-1.49-.24A2.63,2.63,0,0,1,107,101.8a5,5,0,0,1-.2-1.52,4.83,4.83,0,0,1,.22-1.51,3.36,3.36,0,0,1,.66-1.17,3,3,0,0,1,1.1-.75,4.09,4.09,0,0,1,1.55-.27,4.46,4.46,0,0,1,1.5.23,2.75,2.75,0,0,1,1,.69,2.9,2.9,0,0,1,.62,1.12A5.51,5.51,0,0,1,113.73,100.15Zm-9.86.1a5.06,5.06,0,0,0-.06-.79,2.35,2.35,0,0,0-.21-.68,1.3,1.3,0,0,0-.39-.47,1,1,0,0,0-.6-.18,1.49,1.49,0,0,0-.36.05,1.51,1.51,0,0,0-.36.18,2.58,2.58,0,0,0-.38.32,4.22,4.22,0,0,0-.41.48v2.12a4.77,4.77,0,0,0,.73.75,1.14,1.14,0,0,0,.72.26,1,1,0,0,0,.6-.18,1.44,1.44,0,0,0,.41-.47,2.44,2.44,0,0,0,.24-.66A4.3,4.3,0,0,0,103.87,100.25Zm1.89-.12a5.72,5.72,0,0,1-.19,1.55,3.33,3.33,0,0,1-.54,1.17,2.41,2.41,0,0,1-.88.74,2.73,2.73,0,0,1-1.21.26,2.78,2.78,0,0,1-.52,0,1.93,1.93,0,0,1-.46-.16,2.69,2.69,0,0,1-.44-.28q-.21-.17-.45-.39v3a.2.2,0,0,1,0,.13.36.36,0,0,1-.15.1.9.9,0,0,1-.28.06,2.82,2.82,0,0,1-.44,0l-.44,0a.9.9,0,0,1-.28-.06.36.36,0,0,1-.15-.1.2.2,0,0,1,0-.13V97a.2.2,0,0,1,0-.13.22.22,0,0,1,.13-.09,1.11,1.11,0,0,1,.24,0l.37,0,.36,0a1.11,1.11,0,0,1,.24,0,.25.25,0,0,1,.13.09.25.25,0,0,1,0,.13v.76c.19-.19.37-.36.55-.51a3.12,3.12,0,0,1,.55-.37,2.56,2.56,0,0,1,.58-.22,2.62,2.62,0,0,1,.64-.07,2.43,2.43,0,0,1,1.21.28,2.27,2.27,0,0,1,.81.76,3.48,3.48,0,0,1,.46,1.13A5,5,0,0,1,105.76,100.13ZM98,103.51a.13.13,0,0,1,0,.1.3.3,0,0,1-.14.07,1.55,1.55,0,0,1-.28,0h-.94l-.31,0a.27.27,0,0,1-.16-.08.36.36,0,0,1-.08-.12l-.6-1.54a2.87,2.87,0,0,0-.23-.52,1.16,1.16,0,0,0-.28-.33.9.9,0,0,0-.35-.18,1.55,1.55,0,0,0-.45,0h-.37v2.63a.12.12,0,0,1,0,.1.4.4,0,0,1-.16.08l-.28,0-.42,0-.43,0-.28,0a.48.48,0,0,1-.16-.08.14.14,0,0,1,0-.1V97a.12.12,0,0,1,0-.1.34.34,0,0,1,.16-.08l.28-.05.43,0,.42,0a1.43,1.43,0,0,1,.28.05.4.4,0,0,1,.16.08.14.14,0,0,1,0,.1v2.5h.37a1.62,1.62,0,0,0,.4,0,.89.89,0,0,0,.33-.18,1.41,1.41,0,0,0,.28-.34,3.71,3.71,0,0,0,.24-.52L95.94,97a.33.33,0,0,1,.07-.13.34.34,0,0,1,.16-.09,1.41,1.41,0,0,1,.29,0l.49,0,.44,0,.27,0a.22.22,0,0,1,.13.07.18.18,0,0,1,0,.1.55.55,0,0,1,0,.17,1.91,1.91,0,0,1-.1.27l-.51,1.23a3.68,3.68,0,0,1-.32.63,2.16,2.16,0,0,1-.35.42,2.11,2.11,0,0,1-.36.27,1.81,1.81,0,0,1-.35.16h0a4.09,4.09,0,0,1,.42.2,1.57,1.57,0,0,1,.37.28,2.58,2.58,0,0,1,.34.43,3.55,3.55,0,0,1,.32.62l.63,1.44.07.16a.84.84,0,0,1,0,.12.37.37,0,0,1,0,.09A.28.28,0,0,0,98,103.51Z" fill="#1d1d1b"/><path d="M236.51,101.37a1.25,1.25,0,0,0-.07-.45.81.81,0,0,0-.25-.34,1.06,1.06,0,0,0-.44-.21,2.6,2.6,0,0,0-.67-.07h-.45l-.39,0v2.08l.41,0h.47a1.64,1.64,0,0,0,1.06-.29,1,1,0,0,0,.33-.81M234.24,99l.5,0h.56a5,5,0,0,1,1.37.16,2.56,2.56,0,0,1,1,.47,1.89,1.89,0,0,1,.56.73,2.52,2.52,0,0,1,.18,1,2.68,2.68,0,0,1-.2,1,2.15,2.15,0,0,1-.63.81,3.05,3.05,0,0,1-1.07.52,5.84,5.84,0,0,1-1.55.18h-1l-.46,0-.43,0a.71.71,0,0,1-.5-.21.77.77,0,0,1-.16-.52V97a.2.2,0,0,1,0-.13.28.28,0,0,1,.14-.09,1.46,1.46,0,0,1,.27,0l.41,0a2.59,2.59,0,0,1,.74.07c.14,0,.21.12.21.22v2Zm6.88,4.46a.2.2,0,0,1,0,.13.35.35,0,0,1-.15.09,1.46,1.46,0,0,1-.27,0l-.45,0-.43,0a1.43,1.43,0,0,1-.28,0,.27.27,0,0,1-.15-.09.2.2,0,0,1,0-.13V97a.2.2,0,0,1,0-.13.27.27,0,0,1,.15-.09,1.43,1.43,0,0,1,.28,0l.43,0,.45,0a1.19,1.19,0,0,1,.27,0,.27.27,0,0,1,.15.09.18.18,0,0,1,0,.13Zm-10.52,0a.2.2,0,0,1,0,.13.35.35,0,0,1-.15.09,1.43,1.43,0,0,1-.28,0l-.44,0-.44,0a1.43,1.43,0,0,1-.28,0,.21.21,0,0,1-.14-.09.2.2,0,0,1,0-.13V98.23h-1.31a20,20,0,0,1-.29,2,10.12,10.12,0,0,1-.39,1.48,4.49,4.49,0,0,1-.5,1,2.68,2.68,0,0,1-.59.65,2.16,2.16,0,0,1-.7.34,3,3,0,0,1-.8.1.43.43,0,0,1-.17,0,.22.22,0,0,1-.1-.11,1.11,1.11,0,0,1-.05-.24c0-.11,0-.24,0-.42s0-.32,0-.43a1.3,1.3,0,0,1,0-.26.23.23,0,0,1,.08-.12.24.24,0,0,1,.12,0,1,1,0,0,0,.39-.08.87.87,0,0,0,.35-.3,2.6,2.6,0,0,0,.31-.56,6.27,6.27,0,0,0,.27-.88c.08-.35.16-.78.23-1.27s.14-1.07.21-1.72a.72.72,0,0,1,.13-.44.43.43,0,0,1,.36-.15h3.73a.44.44,0,0,1,.37.15.68.68,0,0,1,.12.44v6.07Zm-9.55-2.74h-.69a4.06,4.06,0,0,0-.75.06,1.6,1.6,0,0,0-.51.19.88.88,0,0,0-.29.32.93.93,0,0,0-.09.42.8.8,0,0,0,.26.64,1,1,0,0,0,.71.23,1.35,1.35,0,0,0,.71-.19,3,3,0,0,0,.65-.57v-1.1Zm1.78,2.76a.19.19,0,0,1-.07.16.51.51,0,0,1-.23.08,3.62,3.62,0,0,1-.93,0,.42.42,0,0,1-.21-.08.21.21,0,0,1-.06-.16V103a3.25,3.25,0,0,1-.9.67,2.63,2.63,0,0,1-1.13.24,3.1,3.1,0,0,1-.94-.13,2,2,0,0,1-.74-.4,1.86,1.86,0,0,1-.49-.65,2.14,2.14,0,0,1-.17-.91,2,2,0,0,1,.22-1,1.89,1.89,0,0,1,.66-.69,3.31,3.31,0,0,1,1.09-.4,7.52,7.52,0,0,1,1.51-.13h.63v-.39a2.09,2.09,0,0,0-.06-.53.92.92,0,0,0-.2-.38.77.77,0,0,0-.37-.22,2,2,0,0,0-.58-.07,2.9,2.9,0,0,0-.81.1,5.07,5.07,0,0,0-.63.22l-.46.22a.62.62,0,0,1-.3.1.24.24,0,0,1-.14-.05.36.36,0,0,1-.1-.15.7.7,0,0,1-.06-.23,1.47,1.47,0,0,1,0-.31,1.56,1.56,0,0,1,0-.35.43.43,0,0,1,.14-.23,1.23,1.23,0,0,1,.35-.23,4.86,4.86,0,0,1,.59-.23,6.18,6.18,0,0,1,.74-.18,4.5,4.5,0,0,1,.83-.07,4.89,4.89,0,0,1,1.3.15,2.11,2.11,0,0,1,.88.46,1.81,1.81,0,0,1,.51.79,3.59,3.59,0,0,1,.16,1.15v4.32Zm-7.31,0a.16.16,0,0,1,0,.12.3.3,0,0,1-.14.08,1.46,1.46,0,0,1-.27,0h-.87a1.72,1.72,0,0,1-.29,0,.4.4,0,0,1-.16-.08.17.17,0,0,1-.05-.12v-2.87c0-.2,0-.41,0-.63s0-.43.05-.64c-.12.2-.24.4-.38.6l-.41.58-2.17,3a.77.77,0,0,1-.12.13.38.38,0,0,1-.15.09l-.23,0h-.77a1.33,1.33,0,0,1-.26,0,.28.28,0,0,1-.14-.09.2.2,0,0,1,0-.13V97a.19.19,0,0,1,0-.12.27.27,0,0,1,.15-.09,1.46,1.46,0,0,1,.27,0l.43,0a2.44,2.44,0,0,1,.72.07q.21.08.21.21v2.86c0,.2,0,.4,0,.61a5.73,5.73,0,0,1-.06.61l.35-.57c.12-.19.25-.37.38-.55l2.2-3a.77.77,0,0,1,.12-.13.61.61,0,0,1,.16-.09,1.25,1.25,0,0,1,.24-.05l.36,0,.42,0a1.2,1.2,0,0,1,.26.05.27.27,0,0,1,.13.09.28.28,0,0,1,0,.13v6.48Zm-9.76-3.21a5.06,5.06,0,0,0-.06-.79,2.35,2.35,0,0,0-.21-.68,1.3,1.3,0,0,0-.39-.47,1,1,0,0,0-.6-.18,1.49,1.49,0,0,0-.36.05,1.51,1.51,0,0,0-.36.18,2.58,2.58,0,0,0-.38.32,4.22,4.22,0,0,0-.41.48v2.12a4.77,4.77,0,0,0,.73.75,1.14,1.14,0,0,0,.72.26,1,1,0,0,0,.6-.18,1.44,1.44,0,0,0,.41-.47,2.44,2.44,0,0,0,.24-.66A3.48,3.48,0,0,0,205.76,100.25Zm1.9-.12a5.72,5.72,0,0,1-.19,1.55,3.33,3.33,0,0,1-.54,1.17,2.41,2.41,0,0,1-.88.74,2.73,2.73,0,0,1-1.21.26,2.78,2.78,0,0,1-.52,0,1.93,1.93,0,0,1-.46-.16,2.69,2.69,0,0,1-.44-.28A5,5,0,0,1,203,103v3a.2.2,0,0,1,0,.13.36.36,0,0,1-.15.1.9.9,0,0,1-.28.06,2.82,2.82,0,0,1-.44,0l-.44,0a.9.9,0,0,1-.28-.06.36.36,0,0,1-.15-.1.2.2,0,0,1,0-.13V97a.2.2,0,0,1,0-.13.22.22,0,0,1,.13-.09,1.11,1.11,0,0,1,.24,0l.37,0,.36,0a1.11,1.11,0,0,1,.24,0,.25.25,0,0,1,.13.09.25.25,0,0,1,0,.13v.76c.19-.19.37-.36.55-.51a3.12,3.12,0,0,1,.55-.37,2.56,2.56,0,0,1,.58-.22,2.62,2.62,0,0,1,.64-.07,2.43,2.43,0,0,1,1.21.28,2.27,2.27,0,0,1,.81.76,3.48,3.48,0,0,1,.46,1.13A5,5,0,0,1,207.66,100.13Zm-9.74-.62a1.82,1.82,0,0,0-.31-1.2,1.2,1.2,0,0,0-1-.44,1.26,1.26,0,0,0-.6.13,1.33,1.33,0,0,0-.43.35,1.69,1.69,0,0,0-.26.52,2.6,2.6,0,0,0-.1.64Zm1.76.52a.7.7,0,0,1-.15.49.51.51,0,0,1-.41.16H195.2a2.52,2.52,0,0,0,.1.75,1.57,1.57,0,0,0,.31.57,1.32,1.32,0,0,0,.55.36,2.39,2.39,0,0,0,.81.12,4.19,4.19,0,0,0,.84-.07l.63-.15.44-.15a.75.75,0,0,1,.28-.07l.11,0a.22.22,0,0,1,.07.09.6.6,0,0,1,0,.18,2.63,2.63,0,0,1,0,.3,2.1,2.1,0,0,1,0,.27c0,.07,0,.14,0,.19a.4.4,0,0,1,0,.13.25.25,0,0,1-.08.1,1,1,0,0,1-.26.14,4.8,4.8,0,0,1-.53.17c-.22.05-.46.1-.74.14a6.37,6.37,0,0,1-.9.06,4.66,4.66,0,0,1-1.51-.22,2.59,2.59,0,0,1-1.08-.66,2.84,2.84,0,0,1-.65-1.11,5.28,5.28,0,0,1-.21-1.57,5,5,0,0,1,.22-1.55,3.17,3.17,0,0,1,.65-1.17,2.84,2.84,0,0,1,1-.73,4,4,0,0,1,2.76,0,2.49,2.49,0,0,1,1.48,1.66,4.15,4.15,0,0,1,.17,1.25V100Zm-6.84-2.47c0,.16,0,.29,0,.4a1.09,1.09,0,0,1,0,.25.22.22,0,0,1-.09.13.28.28,0,0,1-.12,0h-1.62v5.07a.2.2,0,0,1,0,.13.35.35,0,0,1-.15.09,1.43,1.43,0,0,1-.28,0l-.44,0-.43,0a1.43,1.43,0,0,1-.28,0,.21.21,0,0,1-.14-.09.2.2,0,0,1,0-.13V98.38h-1.62a.2.2,0,0,1-.13,0,.31.31,0,0,1-.09-.14.8.8,0,0,1-.05-.26c0-.11,0-.25,0-.4a3.21,3.21,0,0,1,0-.36.7.7,0,0,1,.06-.24.22.22,0,0,1,.09-.13.16.16,0,0,1,.12,0h5a.19.19,0,0,1,.12,0,.27.27,0,0,1,.09.13,1.22,1.22,0,0,1,.05.25C192.83,97.28,192.84,97.4,192.84,97.56Z" fill="#1d1d1b"/><path d="M253.75,65.69a4.1,4.1,0,0,0-5.8,0h0a4.1,4.1,0,0,0,5.8,5.8h0a4.1,4.1,0,0,0,0-5.8m-2.9-2.11a5,5,0,0,1,3.54,8.55h0a5,5,0,0,1-7.08,0h0a5,5,0,0,1,0-7.08h0A5,5,0,0,1,250.85,63.58Z" fill="#1d1d1b"/><path d="M251.77,67.36a.83.83,0,0,0-.12-.46.65.65,0,0,0-.41-.27,1.08,1.08,0,0,0-.19,0h-.81v1.57h.57a1.33,1.33,0,0,0,.42-.06.86.86,0,0,0,.3-.16.64.64,0,0,0,.18-.25.88.88,0,0,0,.06-.33m1.46,3.77a.19.19,0,0,1,0,.08.12.12,0,0,1-.08.05l-.19,0h-.63l-.17,0-.09-.06a.19.19,0,0,1,0-.09l-.5-1.24c-.06-.14-.12-.26-.18-.37a1.17,1.17,0,0,0-.19-.27.81.81,0,0,0-.24-.17.79.79,0,0,0-.32-.06h-.35v2.12a.13.13,0,0,1,0,.08l-.09.06-.17,0h-.54a.61.61,0,0,1-.17,0,.15.15,0,0,1-.09-.06.11.11,0,0,1,0-.08v-5a.31.31,0,0,1,.1-.27.32.32,0,0,1,.24-.08h1.8l.26,0a2.63,2.63,0,0,1,.6.16,1.48,1.48,0,0,1,.45.3,1.35,1.35,0,0,1,.29.44,1.55,1.55,0,0,1,.1.59,1.61,1.61,0,0,1-.07.51,1.44,1.44,0,0,1-.21.41,1.27,1.27,0,0,1-.34.31,1.62,1.62,0,0,1-.46.21,1.14,1.14,0,0,1,.23.15,1.34,1.34,0,0,1,.2.21,1.5,1.5,0,0,1,.18.28c.06.11.11.22.17.35l.47,1.09.09.24A.74.74,0,0,1,253.23,71.13Z" fill="#1d1d1b"/></g></g></svg>