<svg xmlns="http://www.w3.org/2000/svg" viewBox="0 0 110.9 28.08"><g id="Слой_2" data-name="Слой 2"><g id="Слой_1-2" data-name="Слой 1"><path d="M2,0H8.28C-5,10.61,4.93,27.42,20.8,26,7.22,25,8.56,9.22,17.76,2.44,20.39.5,25.1,1.63,24.67,4.11c.22-.41,1.46-2.76-3-4.11h3.74a1.94,1.94,0,0,1,1.93,2V13.37C24.67,18.7,18.21,23.18,12,20c2.15,5.39,10.82,7.32,15.36,3.58v1.85a1.94,1.94,0,0,1-1.93,1.94H2a2,2,0,0,1-2-1.94V2A2,2,0,0,1,2,0Zm8.8,0h1.46a16.45,16.45,0,0,0-6.5,7.07,15,15,0,0,1,5-7.07Zm5.13,0h1.76l-.54.2A16.44,16.44,0,0,0,11.26,5a15.08,15.08,0,0,1,4.63-5ZM27.34,17.31V19c-1.37,1.63-3,2.15-5.47,2.58a9,9,0,0,0,5.47-4.28Zm0,3.74v.83a7.72,7.72,0,0,1-2.82,1.3A7.67,7.67,0,0,0,27.34,21.05ZM19.93,2c1.22,1.11-.24,3-1.91,3.45,1.19.53,2.91,1.31,3.89,1.83,1.33-.46,2.8-2.83,2.09-4S21.1,1.63,19.93,2Z" fill="#fff"/><path d="M45.12,15.37l-.19,2.53a21.57,21.57,0,0,1-4,.43,8.35,8.35,0,0,1-6.13-2.09,6.79,6.79,0,0,1-2.1-5.06,7.39,7.39,0,0,1,2.24-5.37A8.1,8.1,0,0,1,41,3.5a21,21,0,0,1,3.79.37V6.5a21.47,21.47,0,0,0-4.15-.56,4.36,4.36,0,0,0-3.55,1.41A5.26,5.26,0,0,0,36,10.79a5.12,5.12,0,0,0,1.39,3.58,4.91,4.91,0,0,0,3.87,1.53,16.66,16.66,0,0,0,3.91-.53Zm12.81.24L57.84,18H47.56c.11-2.22.15-4.7.15-7.48s0-5-.15-6.83H57.84l-.13,2.39c-2.35-.11-5.22-.17-7.13-.17.06,1,.11,2.21.11,3.61,1.65,0,4.37,0,6.24-.11v2.28c-1.85-.06-4.57-.11-6.24-.11,0,1.5,0,2.9.11,4.2,2.13,0,4.71-.07,7.13-.2ZM71.21,7.46a4.23,4.23,0,0,1-2.09,3.89,7,7,0,0,1-4.5.41A7.92,7.92,0,0,1,64,10.33h.11c2.84,0,4.13-.57,4.13-2.26s-.9-2.35-3.11-2.35a10.37,10.37,0,0,0-1.76.15c.08,1.39.13,3,.13,4.72v2c0,1.39,0,3.2.13,5.46H60.27c.11-2.11.16-4.61.16-7.48,0-2.67,0-4.94-.16-6.83H64c.83,0,1.54-.05,2.15-.05a6.19,6.19,0,0,1,3.52,1,3.1,3.1,0,0,1,1.55,2.87ZM85,13.72c0,2.92-1.07,4.4-6.17,4.4-.9,0-3.85-.05-5.72-.09.09-2.22.15-4.7.15-7.48s-.06-5-.15-6.83h3.72c.84,0,1.5-.05,2-.05,3.48,0,5.68,1.28,5.68,3.42A3.22,3.22,0,0,1,82,10.57,3.54,3.54,0,0,1,85,13.72Zm-2.83.13c0-1.48-1.37-2.19-4.11-2.19H76.22c0,1.54,0,3,.11,4.24A10.33,10.33,0,0,0,78,16a7.77,7.77,0,0,0,3.17-.48,1.73,1.73,0,0,0,1-1.7Zm-.76-6.17c0-1.31-.87-2-2.63-2a19,19,0,0,0-2.61,0c.11.74,0,2.13,0,3.94h1.52c2.48,0,3.69-.7,3.69-2Zm29.48-.22a4.23,4.23,0,0,1-2.09,3.89,7,7,0,0,1-4.5.41,7.46,7.46,0,0,1-.67-1.43h.11c2.84,0,4.12-.57,4.12-2.26s-.89-2.35-3.1-2.35a10.37,10.37,0,0,0-1.76.15c.06,1.39.1,3,.1,4.72v2c0,1.39,0,3.2.13,5.46H100c.11-2.11.16-4.61.16-7.48,0-2.67,0-4.94-.16-6.83h3.67c.83,0,1.52-.05,2.13-.05a6.25,6.25,0,0,1,3.54,1,3.15,3.15,0,0,1,1.55,2.87ZM97.51,15.61,97.42,18H87.14c.11-2.22.15-4.7.15-7.48s0-5-.15-6.83H97.42l-.13,2.39c-2.35-.11-5.22-.17-7.13-.17.09,1,.11,2.21.11,3.61,1.65,0,4.37,0,6.24-.11v2.28c-1.85-.06-4.57-.11-6.24-.11,0,1.5,0,2.9.11,4.2,2.13,0,4.71-.07,7.13-.2Z" fill="#fff"/><polygon points="44.36 23.15 43.12 23.15 43.12 22.63 46.2 22.63 46.2 23.15 44.96 23.15 44.96 26.27 44.36 26.27 44.36 23.15" fill="#fff"/><path d="M50.34,24.45a3,3,0,0,0-.08-.61,1.27,1.27,0,0,0-.24-.43.86.86,0,0,0-.35-.28.93.93,0,0,0-.45-.09,1.05,1.05,0,0,0-.46.09,1,1,0,0,0-.35.28,1.23,1.23,0,0,0-.21.43,1.77,1.77,0,0,0-.09.61,1.63,1.63,0,0,0,.09.61,1.23,1.23,0,0,0,.21.43.91.91,0,0,0,.37.28.93.93,0,0,0,.44.11.94.94,0,0,0,.45-.11.86.86,0,0,0,.35-.28,1.27,1.27,0,0,0,.24-.43,2.66,2.66,0,0,0,.08-.61Zm.61,0a2.57,2.57,0,0,1-.11.78,1.87,1.87,0,0,1-.34.61,1.61,1.61,0,0,1-.57.39,1.41,1.41,0,0,1-.71.15,1.58,1.58,0,0,1-.72-.15,1.49,1.49,0,0,1-.56-.39,1.58,1.58,0,0,1-.35-.61,2.57,2.57,0,0,1-.11-.78,2.2,2.2,0,0,1,.13-.78,1.6,1.6,0,0,1,.35-.61,1.42,1.42,0,0,1,.54-.39,1.58,1.58,0,0,1,.72-.15,1.73,1.73,0,0,1,1.28.54,1.72,1.72,0,0,1,.34.61,2.2,2.2,0,0,1,.11.78Z" fill="#fff"/><path d="M55.25,24.43a2.17,2.17,0,0,0-.07-.59,1.44,1.44,0,0,0-.21-.43,1,1,0,0,0-.33-.28,1,1,0,0,0-.46-.09,1.76,1.76,0,0,0-.34,0l-.26.13a.58.58,0,0,0-.22.18.71.71,0,0,0-.15.15v1.91a1.34,1.34,0,0,0,.43.3,1,1,0,0,0,.52.13,1.29,1.29,0,0,0,.37-.06,1.22,1.22,0,0,0,.35-.24,1.3,1.3,0,0,0,.26-.43,2.48,2.48,0,0,0,.11-.72Zm.61,0a3.28,3.28,0,0,1-.07.67,1.61,1.61,0,0,1-.2.52,1.19,1.19,0,0,1-.3.37l-.32.24a1.36,1.36,0,0,1-.37.13,2.35,2.35,0,0,1-.35,0,1.59,1.59,0,0,1-.59-.11,1.85,1.85,0,0,1-.43-.32h0v2.13h-.59V22.63h.46l.13.41h0a1.74,1.74,0,0,1,.13-.15.94.94,0,0,1,.22-.15,1.06,1.06,0,0,1,.32-.16,1.23,1.23,0,0,1,.39-.06,1.78,1.78,0,0,1,.61.11,1.22,1.22,0,0,1,.5.32,1.55,1.55,0,0,1,.34.59,2.52,2.52,0,0,1,.14.87Z" fill="#fff"/><polygon points="60.04 23.17 58.15 23.17 58.15 26.27 57.52 26.27 57.52 22.63 60.04 22.63 60.04 23.17" fill="#fff"/><path d="M64.16,24.45a2,2,0,0,0-.08-.61,1.27,1.27,0,0,0-.24-.43.86.86,0,0,0-.35-.28A.93.93,0,0,0,63,23a1,1,0,0,0-.81.37,1.23,1.23,0,0,0-.21.43,1.77,1.77,0,0,0-.09.61,1.63,1.63,0,0,0,.09.61.91.91,0,0,0,.24.43.77.77,0,0,0,.34.28,1,1,0,0,0,.46.11.92.92,0,0,0,.43-.11.86.86,0,0,0,.35-.28,1.27,1.27,0,0,0,.24-.43,1.88,1.88,0,0,0,.08-.61Zm.63,0a2.06,2.06,0,0,1-.13.78,1.57,1.57,0,0,1-.34.61,1.73,1.73,0,0,1-.55.39,1.51,1.51,0,0,1-.71.15,1.61,1.61,0,0,1-.74-.15,1.42,1.42,0,0,1-.54-.39,1.46,1.46,0,0,1-.35-.61,2.06,2.06,0,0,1-.13-.78,2.2,2.2,0,0,1,.13-.78,1.91,1.91,0,0,1,.35-.61,1.42,1.42,0,0,1,.54-.39,1.58,1.58,0,0,1,.72-.15,1.73,1.73,0,0,1,1.28.54,1.72,1.72,0,0,1,.34.61,2.2,2.2,0,0,1,.13.78Z" fill="#fff"/><path d="M68.66,24.39a.65.65,0,0,1,.26.06.91.91,0,0,1,.23.15.57.57,0,0,1,.16.26.91.91,0,0,1,.06.35,1,1,0,0,1-.19.59,1.08,1.08,0,0,1-.57.39,1.3,1.3,0,0,1-.32.06,3.24,3.24,0,0,1-.46,0H66.44V22.63h1.48a2.43,2.43,0,0,1,.41,0l.3.06a1.06,1.06,0,0,1,.48.35.86.86,0,0,1,.15.52.78.78,0,0,1,0,.31,1.93,1.93,0,0,1-.13.21.7.7,0,0,1-.2.16,1.15,1.15,0,0,1-.23.1Zm-.83,1.38a2.06,2.06,0,0,0,.37,0,.86.86,0,0,0,.24,0,.44.44,0,0,0,.24-.2.7.7,0,0,0,.06-.3.58.58,0,0,0-.08-.33.61.61,0,0,0-.29-.19,1.65,1.65,0,0,0-.39,0h-.93v1.12ZM68,24.15a1,1,0,0,0,.35,0,.44.44,0,0,0,.26-.17.66.66,0,0,0,.09-.3.43.43,0,0,0-.27-.42.92.92,0,0,0-.47-.08h-.87v1Z" fill="#fff"/><path d="M74.4,26.27V22.63H75v3.64Zm-2.19-.45a1.47,1.47,0,0,0,.76-.18.55.55,0,0,0,.28-.52,1.27,1.27,0,0,0,0-.26,1.45,1.45,0,0,0-.17-.19.55.55,0,0,0-.31-.13,1.08,1.08,0,0,0-.43-.05H72a2.93,2.93,0,0,0-.35.05v1.21a.8.8,0,0,0,.26.05l.3,0Zm-.56-3.19V24A1.84,1.84,0,0,1,72,24a1.77,1.77,0,0,1,.32,0,3.53,3.53,0,0,1,.72.09,1.68,1.68,0,0,1,.5.26.89.89,0,0,1,.26.35,1.12,1.12,0,0,1,.08.45,1,1,0,0,1-.13.52.82.82,0,0,1-.34.37,2.08,2.08,0,0,1-.57.24,2.93,2.93,0,0,1-.69.07,3.67,3.67,0,0,1-.61-.05,2,2,0,0,1-.5-.1V22.63Z" fill="#fff"/><path d="M77.42,26.27H76.9V22.63h.59v2a5.74,5.74,0,0,1,0,.81h0a3,3,0,0,1,.26-.42,4.43,4.43,0,0,1,.34-.45l1.43-1.93H80v3.64h-.58v-2c0-.29,0-.55,0-.81h0a4.45,4.45,0,0,1-.26.42c-.11.15-.22.3-.35.45Zm1.08-4.84a.6.6,0,0,0,.48-.19.83.83,0,0,0,.22-.54h.54a1.08,1.08,0,0,1-.11.47.94.94,0,0,1-.24.37,1.14,1.14,0,0,1-.36.26,1.29,1.29,0,0,1-.53.11A1.17,1.17,0,0,1,78,21.8a1,1,0,0,1-.37-.26,1.24,1.24,0,0,1-.24-.37,1.45,1.45,0,0,1-.09-.47h.52a1,1,0,0,0,.22.54.55.55,0,0,0,.45.19Z" fill="#fff"/><path d="M86.71,23.13a8.31,8.31,0,0,1-.16.86,2.91,2.91,0,0,1-.26.68,4,4,0,0,1-.34.58,4.25,4.25,0,0,1-.44.5l0,0h2V23.13Zm1.32-.5v3.14h.58V27.6H88V26.27H85.3V27.6h-.59V25.77h.19c.18-.19.33-.39.48-.58a4.57,4.57,0,0,0,.35-.7,5.16,5.16,0,0,0,.26-.84,7.59,7.59,0,0,0,.11-1Z" fill="#fff"/><path d="M92.89,24.45a1.77,1.77,0,0,0-.09-.61,1.23,1.23,0,0,0-.21-.43.91.91,0,0,0-.37-.28,1.15,1.15,0,0,0-.89,0,.86.86,0,0,0-.35.28,1.27,1.27,0,0,0-.24.43,2,2,0,0,0-.09.61,1.87,1.87,0,0,0,.09.61,1.27,1.27,0,0,0,.24.43.86.86,0,0,0,.35.28.94.94,0,0,0,.45.11,1,1,0,0,0,.44-.11.91.91,0,0,0,.37-.28,1.23,1.23,0,0,0,.21-.43,1.63,1.63,0,0,0,.09-.61Zm.63,0a2.27,2.27,0,0,1-.13.78,1.72,1.72,0,0,1-.35.61,1.5,1.5,0,0,1-.54.39,1.58,1.58,0,0,1-.72.15,1.61,1.61,0,0,1-.74-.15,1.5,1.5,0,0,1-.54-.39,1.72,1.72,0,0,1-.35-.61,2.27,2.27,0,0,1-.13-.78,2.45,2.45,0,0,1,.13-.78,1.91,1.91,0,0,1,.35-.61,1.69,1.69,0,0,1,.54-.39,1.61,1.61,0,0,1,.74-.15,1.58,1.58,0,0,1,.72.15,1.34,1.34,0,0,1,.54.39,1.6,1.6,0,0,1,.35.61,2.45,2.45,0,0,1,.13.78Z" fill="#fff"/><path d="M97,26.27l-.72-1.73c-.13-.37-.28-.76-.43-1.2h0c0,.31,0,.7,0,1.18v1.75h-.58V22.63H96l.65,1.65c.16.41.29.78.42,1.1h0c.13-.34.26-.71.41-1.1l.67-1.65h.85v3.64h-.61V24.52c0-.42,0-.81,0-1.18h0c-.11.31-.26.7-.45,1.2l-.7,1.73Z" fill="#fff"/></g></g></svg>