<?xml version="1.0" encoding="UTF-8"?>
<svg id="_Слой_2" data-name="Слой 2" xmlns="http://www.w3.org/2000/svg" viewBox="0 0 433.1 512">
  <defs>
    <style>
      .cls-1 {
        fill: #fff;
      }

      .cls-1, .cls-2 {
        stroke-width: 0px;
      }

      .cls-2 {
        fill: #ad2125;
      }
    </style>
  </defs>
  <g id="Capa_1" data-name="Capa 1">
    <path class="cls-2" d="m369.67,63.43C328.77,22.53,274.39,0,216.55,0S104.33,22.53,63.43,63.43C22.53,104.33,0,158.71,0,216.55c0,117.01,110.64,214.34,170.08,266.62,8.26,7.27,15.39,13.54,21.08,18.85,7.12,6.65,16.26,9.98,25.4,9.98s18.28-3.33,25.4-9.98c5.68-5.31,12.82-11.58,21.08-18.85,59.44-52.29,170.08-149.61,170.08-266.62,0-57.84-22.52-112.22-63.43-153.12Z"/>
    <circle class="cls-1" cx="216.55" cy="208.37" r="95.43" transform="translate(-30.58 37.38) rotate(-9.22)"/>
  </g>
</svg>