<?xml version="1.0" encoding="UTF-8"?>
<svg id="_Слой_2" data-name="Слой 2" xmlns="http://www.w3.org/2000/svg" xmlns:xlink="http://www.w3.org/1999/xlink" viewBox="0 0 809 229">
  <defs>
    <style>
      .cls-1 {
        fill: #4db45e;
      }

      .cls-1, .cls-2 {
        fill-rule: evenodd;
      }

      .cls-2 {
        fill: url(#linear-gradient);
      }
    </style>
    <linearGradient id="linear-gradient" x1="570.9" y1="182" x2="809" y2="182" gradientTransform="translate(0 229) scale(1 -1)" gradientUnits="userSpaceOnUse">
      <stop offset=".3" stop-color="#00b4e6"/>
      <stop offset="1" stop-color="#088ccb"/>
    </linearGradient>
  </defs>
  <g id="Layer_1" data-name="Layer 1">
    <g id="g5">
      <path id="path7" class="cls-1" d="M218,0v.1C217.9.1,186.4,0,178,30.1c-7.7,27.6-29.4,103.8-30,105.9h-6s-22.2-77.9-30-106C103.6-.1,72,0,72,0H0v229h72V93h6l42,136h50l42-135.9h6v135.9h72V0h-72Z"/>
    </g>
    <g id="g9">
      <path id="path11" class="cls-1" d="M481,0s-21.1,1.9-31,24l-51,112h-6V0h-72v229h68s22.1-2,32-24l50-112h6v136h72V0h-68Z"/>
    </g>
    <g id="g13">
      <path id="path15" class="cls-1" d="M581,104v125h72v-73h78c34,0,62.8-21.7,73.5-52h-223.5Z"/>
    </g>
    <g id="g17">
      <path id="path24" class="cls-2" d="M731,0h-160.1c8,43.6,40.7,78.6,83,90h0c9.6,2.6,19.7,4,30.1,4h123.4c1.1-5.2,1.6-10.5,1.6-16C809,34.9,774.1,0,731,0Z"/>
    </g>
  </g>
</svg>