<?xml version="1.0" encoding="UTF-8"?>
<svg id="_Слой_2" data-name="Слой 2" xmlns="http://www.w3.org/2000/svg" viewBox="0 0 1080 474.7">
  <defs>
    <style>
      .cls-1 {
        fill: #fff;
      }

      .cls-1, .cls-2 {
        stroke-width: 0px;
      }

      .cls-2 {
        fill: #005bff;
      }
    </style>
  </defs>
  <g id="Layer_1" data-name="Layer 1">
    <rect class="cls-2" width="1080" height="474.7" rx="23.83" ry="23.83"/>
    <path class="cls-1" d="m478.3,277.3h-64.7l82.6-109.3c1.8-2.4,1.3-5.9-1.1-7.7-.9-.7-2.1-1.1-3.3-1.1h-119.5c-10.5,0-19.1,8.6-19.1,19.1s8.6,19.1,19.1,19.1h53.7l-82.9,109.4c-1.9,2.4-1.4,5.8,1,7.7,1,.8,2.2,1.2,3.4,1.1h130.7c10.5-.5,18.6-9.5,18.1-20.1-.5-9.8-8.3-17.6-18.1-18.1v-.1h.1Zm417.6-118.1c-10.5,0-19.1,8.6-19.1,19.1v64.1l-103.2-81.9c-2.3-1.9-5.8-1.6-7.7.8-.8,1-1.2,2.2-1.2,3.5v131.7c0,10.5,8.6,19.1,19.1,19.1s19.1-8.5,19.1-19.1v-64.1l103.2,82c2.4,1.9,5.9,1.5,7.8-.9.8-1,1.2-2.2,1.2-3.4v-131.8c-.1-10.6-8.6-19.1-19.2-19.1m-273.1,121.7c-43.7,0-76.3-23-76.3-43.6s32.7-43.6,76.3-43.6,76.3,23,76.3,43.6-32.5,43.6-76.3,43.6m0-125.4c-63.2,0-114.5,36.6-114.5,81.8s51.3,81.8,114.5,81.8,114.5-36.6,114.5-81.8-51.3-81.8-114.5-81.8m-375.9,125.5c-24.1,0-43.7-19.5-43.7-43.6s19.5-43.7,43.6-43.7,43.7,19.5,43.7,43.6v.1c0,24-19.5,43.5-43.6,43.6m0-125.5c-45.2,0-81.8,36.6-81.9,81.8,0,45.2,36.6,81.8,81.8,81.9,45.2,0,81.8-36.6,81.9-81.8v-.1c-.1-45.2-36.7-81.8-81.8-81.8"/>
  </g>
</svg>