<svg width="165" height="170" data-name="Слой 2" xmlns="http://www.w3.org/2000/svg" viewBox="0 0 114.68 118.09">
  <defs>
    <style>
      .cls-1 {
        fill: none;
        stroke: #ad2125;
        stroke-linecap: round;
        stroke-linejoin: round;
      }
    </style>
  </defs>
  <g id="Layer_1" data-name="Layer 1">
    <g>
      <g>
        <line class="cls-1" x1="9.52" y1="95.38" x2="13.44" y2="116.44"/>
        <line class="cls-1" x1="22.57" y1="92.95" x2="26.49" y2="114.01"/>
        <line class="cls-1" x1="35.62" y1="90.52" x2="39.54" y2="111.58"/>
        <line class="cls-1" x1="48.71" y1="88.31" x2="52.59" y2="109.15"/>
        <line class="cls-1" x1="62.89" y1="91.96" x2="65.64" y2="106.72"/>
        <line class="cls-1" x1="77.08" y1="95.66" x2="78.69" y2="104.29"/>
        <path class="cls-1" d="m48.24,88.17L3.69,96.47c-2.12.39-3.51,2.43-3.12,4.55l2.49,13.39c.39,2.12,2.43,3.51,4.55,3.12l90.72-16.9"/>
      </g>
      <g>
        <line class="cls-1" x1="17.44" y1="58.17" x2="12.09" y2="78.92"/>
        <line class="cls-1" x1="30.29" y1="61.48" x2="24.95" y2="82.23"/>
        <line class="cls-1" x1="43.14" y1="64.8" x2="37.8" y2="85.54"/>
        <line class="cls-1" x1="55.94" y1="68.33" x2="50.65" y2="88.85"/>
        <line class="cls-1" x1="67.25" y1="77.62" x2="63.51" y2="92.16"/>
        <line class="cls-1" x1="78.55" y1="86.97" x2="76.36" y2="95.48"/>
        <path class="cls-1" d="m55.58,68l-43.88-11.31c-2.09-.54-4.21.72-4.75,2.8l-3.4,13.19c-.54,2.09.72,4.21,2.8,4.75l89.36,23.03"/>
      </g>
      <g>
        <line class="cls-1" x1="41.09" y1="28.33" x2="27.48" y2="44.87"/>
        <line class="cls-1" x1="51.34" y1="36.76" x2="37.73" y2="53.3"/>
        <line class="cls-1" x1="61.59" y1="45.19" x2="47.98" y2="61.73"/>
        <line class="cls-1" x1="71.46" y1="54.09" x2="58.23" y2="70.17"/>
        <path class="cls-1" d="m71.64,53.46l-35.13-28.91c-1.66-1.37-4.12-1.13-5.49.53l-8.66,10.52c-1.37,1.66-1.13,4.12.53,5.49l71.26,58.64"/>
      </g>
      <g>
        <rect class="cls-1" x="92.75" y=".5" width="21.42" height="100.08" rx="3.9" ry="3.9" transform="translate(206.93 101.06) rotate(179.99)"/>
        <path class="cls-1" d="m96.41,94c0,1.39,1.12,2.51,2.51,2.51,1.39,0,2.51-1.12,2.51-2.51,0-1.39-1.12-2.51-2.51-2.51-1.39,0-2.51,1.12-2.51,2.51Z"/>
        <line class="cls-1" x1="93.18" y1="13.15" x2="113.73" y2="13.14"/>
        <line class="cls-1" x1="93.2" y1="74.25" x2="113.74" y2="74.24"/>
        <line class="cls-1" x1="109.27" y1="82.28" x2="101.88" y2="82.28"/>
        <line class="cls-1" x1="109.27" y1="86.62" x2="105.98" y2="86.62"/>
      </g>
      <g>
        <line class="cls-1" x1="78.13" y1="66.87" x2="68.48" y2="78.6"/>
        <line class="cls-1" x1="84.4" y1="80.13" x2="78.73" y2="87.04"/>
      </g>
      <g>
        <path class="cls-1" d="m92.56,47.4L72.73,5.93c-.93-1.94-3.26-2.76-5.2-1.84l-12.29,5.88c-1.94.93-2.76,3.26-1.84,5.2l39.8,83.26"/>
        <line class="cls-1" x1="75.29" y1="11.28" x2="55.96" y2="20.52"/>
        <line class="cls-1" x1="81.01" y1="23.26" x2="61.69" y2="32.5"/>
        <line class="cls-1" x1="86.74" y1="35.23" x2="67.41" y2="44.47"/>
        <line class="cls-1" x1="92.47" y1="47.21" x2="73.14" y2="56.45"/>
        <line class="cls-1" x1="92.72" y1="61.8" x2="78.86" y2="68.42"/>
        <line class="cls-1" x1="92.43" y1="76.65" x2="84.59" y2="80.4"/>
      </g>
    </g>
  </g>
</svg>
