<svg width="170px" height="150px" id="_Слой_2" data-name="Слой 2" xmlns="http://www.w3.org/2000/svg" viewBox="0 0 115.17 98.54">
  <defs>
    <style>
      .cls-1 {
        fill: none;
        stroke: #ad2125;
        stroke-linecap: round;
        stroke-linejoin: round;
      }
    </style>
  </defs>
  <g id="Layer_1" data-name="Layer 1">
    <g>
      <line class="cls-1" x1="79.22" y1="70.55" x2="90.42" y2="8.01"/>
      <path class="cls-1" d="m71.35,69.15l11.29-63.09c.66-3.67,4.16-6.1,7.82-5.45l13.02,2.33"/>
      <path class="cls-1" d="m64.16,84.03c-.77,4.28,2.08,8.36,6.36,9.13"/>
      <path class="cls-1" d="m82.45,83.88c.77-4.28-2.08-8.36-6.36-9.13"/>
      <path class="cls-1" d="m68.36,83.04c-.44,2.44,1.19,4.78,3.63,5.22,2.44.44,4.78-1.19,5.22-3.63.44-2.44-1.19-4.78-3.63-5.22-2.44-.44-4.78,1.19-5.22,3.63Z"/>
      <circle class="cls-1" cx="72.78" cy="83.83" r="14.21" transform="translate(-37.51 71.16) rotate(-42.48)"/>
      <polyline class="cls-1" points="18.96 76.1 11.55 74.77 58.44 83.16"/>
      <line class="cls-1" x1="61.02" y1="75.88" x2=".5" y2="65.04"/>
      <polyline class="cls-1" points="55.58 74.9 62.44 36.57 15.22 28.12 8.35 66.45"/>
      <g>
        <line class="cls-1" x1="35.16" y1="31.69" x2="28.3" y2="70.02"/>
        <line class="cls-1" x1="42.09" y1="32.93" x2="35.23" y2="71.26"/>
      </g>
      <polyline class="cls-1" points="62.4 36.78 67.35 9.14 33.59 3.1 28.68 30.53"/>
      <line class="cls-1" x1="59.01" y1="55.74" x2="45.57" y2="53.33"/>
      <line class="cls-1" x1="65.64" y1="18.68" x2="48.02" y2="15.53"/>
      <line class="cls-1" x1="64.01" y1="27.79" x2="54.8" y2="26.14"/>
      <path class="cls-1" d="m113.8,14.99l.78-4.36c.55-3.05-1.49-5.97-4.54-6.52l-6.55-1.17"/>
      <line class="cls-1" x1="81.88" y1="55.69" x2="78.84" y2="55.14"/>
      <line class="cls-1" x1="83.86" y1="44.63" x2="80.82" y2="44.08"/>
      <line class="cls-1" x1="85.84" y1="33.57" x2="82.8" y2="33.02"/>
      <line class="cls-1" x1="87.82" y1="22.5" x2="84.78" y2="21.96"/>
      <g>
        <line class="cls-1" x1="23.56" y1="62.41" x2="15.73" y2="61.01"/>
        <line class="cls-1" x1="19.6" y1="61.7" x2="21.31" y2="52.16"/>
        <polyline class="cls-1" points="23.56 54.54 21.45 51.51 18.36 53.66"/>
      </g>
    </g>
  </g>
</svg>
