<!-- Generator: Adobe Illustrator 24.3.0, SVG Export Plug-In  -->
<svg version="1.1" xmlns="http://www.w3.org/2000/svg" xmlns:xlink="http://www.w3.org/1999/xlink" x="0px" y="0px" width="601px"
     height="601px" viewBox="0 0 601 601" style="overflow:visible;enable-background:new 0 0 601 601;" xml:space="preserve">
<style type="text/css">
	.st0{clip-path:url(#SVGID_2_);fill-rule:evenodd;clip-rule:evenodd;fill:#b3b3b3;}
	.st1{clip-path:url(#SVGID_4_);fill-rule:evenodd;clip-rule:evenodd;fill:#b3b3b3;}
</style>
    <defs>
</defs>
    <g>
	<defs>
		<rect id="SVGID_1_" width="601" height="601"/>
	</defs>
        <clipPath id="SVGID_2_">
		<use xlink:href="#SVGID_1_"  style="overflow:visible;"/>
	</clipPath>
        <path class="st0" d="M0,0h601v601H0V0z M100,106.2H45.7v443.4H100L100,106.2L100,106.2z M331.3,205.6h-51.1v345.7h51.1V205.6z
		 M451.1,204.5v52.1H501l-48.7,233.2v59.7h111.2v-54.8H507L556.4,266v-61.5H451.1z M330.5,137.7h-49.4v42.1h49.4V137.7z
		 M414.5,127.8l-52.8,18.8v57.6h-18.3v52.2h18.3v206.4c0,17.5-0.4,31.4,1.4,41.9c3.6,24.4,18.8,34.5,34.4,41.1
		c14.7,6.2,33,4.9,43.2,3.6v-55.7c-3.8,0.6-4.6,0.4-7.8,0.7c-8.3,0.8-12.5,0.6-15.5-1.9c-2.9-2.5-2.9-7.6-2.9-18.8V256.5h22.7v-52.2
		h-22.7V127.8z M211.6,300.5v41.5h-43.1v-41.5c0-30.7-0.8-44.8,20.7-44.8C209,255.6,211.6,267.8,211.6,300.5 M264.6,318.2
		c0-44.7,0-63.1-14.8-83.3c-10.8-15.4-30.1-32.8-57.7-32.8c-31.4,0-55.5,17-66.7,35.5c-12.8,21.1-9.6,39-9.6,80.6V441
		c0,44.3,2,67,15.3,84.4c11.4,15,31.6,27.7,60.4,27.7c24,0,49.9-11.9,63.5-38.7c7.4-14.4,9.6-32,9.6-57.2v-22.3h-53.8v29
		c0,25.4-6.1,35.6-22.2,34.9c-15.7-0.7-20.1-11.1-20.1-34.9V392h96.1V318.2z"/>
</g>
</svg>
